PathFileType	4	(X/Y/Z)	TVC_41_BWA_06_walk_RCNL2025.trc
DataRate	CameraRate	NumFrames	NumMarkers	Units	OrigDataRate	OrigDataStartFrame	OrigNumFrames
100	100	6	27	mm	100	326	867
Frame#	Time	R_Shoulder			L_Shoulder			C7			J_Notch			R_Elbow			L_Elbow			R_Wrist			L_Wrist			R_Asis			L_Asis			R_Psis			L_Psis			Sacral			Thoracic			Sternum			R_Thigh_Lateral			R_Knee_Lateral			R_Shank_Lateral			R_Ankle_Lateral			R_Heel			R_Toe			L_Thigh_Lateral			L_Knee_Lateral			L_Shank_Lateral			L_Ankle_Lateral			L_Heel			L_Toe		
		X1	Y1	Z1	X2	Y2	Z2	X3	Y3	Z3	X4	Y4	Z4	X5	Y5	Z5	X6	Y6	Z6	X7	Y7	Z7	X8	Y8	Z8	X9	Y9	Z9	X10	Y10	Z10	X11	Y11	Z11	X12	Y12	Z12	X13	Y13	Z13	X14	Y14	Z14	X15	Y15	Z15	X16	Y16	Z16	X17	Y17	Z17	X18	Y18	Z18	X19	Y19	Z19	X20	Y20	Z20	X21	Y21	Z21	X22	Y22	Z22	X23	Y23	Z23	X24	Y24	Z24	X25	Y25	Z25	X26	Y26	Z26	X27	Y27	Z27
326	3.25000000	-1116.280640	1257.432983	388.186981	-1057.494629	1276.775757	55.705460	-1137.524048	1328.040771	216.956390	-1016.464478	1220.298340	238.136520	-1227.011719	979.881958	391.624573	-1103.501221	990.461975	-24.096497	-1025.488983	916.456146	397.543457	-1005.471649	808.837524	-48.658531	-1072.549927	896.728760	351.235962	-1037.641846	858.647766	111.410309	-1227.917236	886.595886	255.670197	-1220.616577	870.638489	169.524734	-1224.266907	878.617188	212.597466	-1186.760132	1033.322144	190.106293	-989.977783	1039.812256	223.591995	-1083.617920	684.681946	456.155792	-1061.301270	446.766541	401.377197	-1103.874512	324.220795	476.616302	-1109.723389	109.023369	426.871002	-1154.042969	85.350960	378.678345	-1003.960510	55.649429	437.076050	-1105.764038	583.843323	35.645329	-1086.230103	400.152679	138.514450	-1116.514526	260.224731	88.134827	-1162.333496	60.887108	169.353516	-1208.594971	44.452065	208.843185	-1040.340576	36.501457	193.302795
327	3.26000000	-1115.284912	1257.335571	387.556030	-1056.763306	1276.509644	55.000038	-1136.625244	1327.896973	216.320374	-1015.594727	1220.102295	237.411148	-1225.967651	979.701843	391.139252	-1103.227783	990.233032	-24.657818	-1024.092194	916.489502	396.624100	-1005.984558	808.224335	-49.594606	-1071.732910	896.676025	350.774719	-1036.982666	858.495850	110.857185	-1227.144287	886.380310	255.214172	-1219.885132	870.384521	169.104721	-1223.514709	878.382416	212.159447	-1186.004395	1033.201660	189.659973	-989.176453	1039.593628	222.917236	-1081.251465	685.390442	456.340942	-1055.241211	447.660370	402.201294	-1095.185547	324.715027	478.160706	-1098.683472	109.363075	429.115204	-1143.146118	85.075539	381.316895	-992.197083	57.242336	438.854706	-1104.536377	583.516052	35.330772	-1085.681763	399.985718	138.409576	-1116.141357	259.962921	88.175720	-1162.315674	60.945923	169.453842	-1208.484009	44.449856	209.035538	-1040.308960	36.505402	193.296539
328	3.27000000	-1114.294922	1257.260010	386.955658	-1056.040649	1276.231445	54.324482	-1135.723267	1327.761597	215.711823	-1014.730896	1219.907349	236.718613	-1225.023804	979.578247	390.696167	-1102.981567	989.987671	-25.162077	-1022.991364	916.421600	395.826645	-1006.546722	807.584351	-50.461294	-1070.905884	896.605103	350.359711	-1036.364258	858.342163	110.348755	-1226.381104	886.178162	254.861771	-1219.190674	870.142639	168.780487	-1222.785889	878.160400	211.821129	-1185.262695	1033.088135	189.275314	-988.395691	1039.371338	222.294693	-1078.648438	686.101562	456.525513	-1049.077515	448.614655	402.988251	-1086.702759	325.299194	479.539978	-1087.708618	109.862808	431.172089	-1132.263672	85.008194	383.611694	-980.605164	59.016232	440.676727	-1103.504395	583.226562	35.039993	-1085.210449	399.827667	138.317352	-1115.866699	259.716492	88.217300	-1162.312988	61.003693	169.565582	-1208.360352	44.427315	209.258057	-1040.284424	36.510365	193.285202
329	3.28000000	-1113.305420	1257.206299	386.386841	-1055.328369	1275.942139	53.678787	-1134.817627	1327.634521	215.131866	-1013.871399	1219.714478	236.058029	-1224.174194	979.513977	390.301361	-1102.761841	989.726501	-25.608553	-1022.258453	916.223267	395.202545	-1007.151276	806.921814	-51.257778	-1070.059326	896.516846	349.990021	-1035.784546	858.188110	109.883018	-1225.620972	885.989319	254.617294	-1218.528809	869.912659	168.556793	-1222.074890	877.950989	211.587044	-1184.532471	1032.981079	188.954483	-987.632019	1039.146851	221.722427	-1075.854614	686.810425	456.712189	-1042.857788	449.629761	403.737061	-1078.495728	325.967896	480.742126	-1076.835205	110.513428	433.020569	-1121.416382	85.136581	385.539032	-969.214233	60.956017	442.533447	-1102.680420	582.978943	34.771446	-1084.822144	399.679443	138.235336	-1115.696655	259.489960	88.256134	-1162.326416	61.057854	169.689362	-1208.225708	44.383904	209.509781	-1040.267700	36.516415	193.267227
330	3.29000000	-1112.310669	1257.173706	385.850494	-1054.627930	1275.642456	53.062996	-1133.907471	1327.515747	214.581635	-1013.014709	1219.524292	235.428543	-1223.409790	979.510254	389.961090	-1102.568481	989.450012	-25.996639	-1021.947540	915.875580	394.797562	-1007.791718	806.240723	-51.983408	-1069.185303	896.412231	349.665222	-1035.240723	858.034790	109.458298	-1224.858154	885.813171	254.483063	-1217.894775	869.694031	168.436478	-1221.376465	877.753601	211.459770	-1183.810791	1032.880005	188.699432	-986.882019	1038.921509	221.198288	-1072.922974	687.509827	456.904022	-1036.627441	450.703400	404.445984	-1070.608643	326.713226	481.762085	-1066.093018	111.303062	434.645630	-1110.622681	85.444565	387.092957	-958.043274	63.041306	444.402710	-1102.062866	582.774109	34.524887	-1084.518677	399.541870	138.162094	-1115.630859	259.287079	88.290413	-1162.356201	61.106030	169.825638	-1208.083008	44.320580	209.788651	-1040.259033	36.523579	193.241669
331	3.30000000	-1111.305176	1257.161499	385.347656	-1053.940918	1275.333008	52.477177	-1132.992310	1327.404663	214.062302	-1012.159241	1219.337036	234.829269	-1222.718994	979.566406	389.681610	-1102.401001	989.158508	-26.325865	-1022.076721	915.375366	394.641495	-1008.461761	805.544861	-52.637743	-1068.277344	896.292236	349.385071	-1034.728760	857.883179	109.073212	-1224.086548	885.648743	254.459473	-1217.283081	869.485779	168.420456	-1220.684814	877.567261	211.439964	-1183.095093	1032.784058	188.511810	-986.142029	1038.696289	220.719971	-1069.910522	688.189880	457.103912	-1030.428345	451.830627	405.112335	-1063.060791	327.525055	482.601013	-1055.505859	112.217522	436.038086	-1099.898682	85.912888	388.283447	-947.102112	65.247765	446.250061	-1101.638062	582.609863	34.301235	-1084.297607	399.415558	138.097092	-1115.663574	259.110687	88.320129	-1162.401367	61.146252	169.974625	-1207.936157	44.239868	210.091400	-1040.258057	36.531815	193.208252
